PathFileType  4	(X/Y/Z) C:\Users\antoi\Documents\MyRepositories\mobilecap\ResultsAnalysis
DataRate	CameraRate	NumFrames	NumMarkers	Units	OrigDataRate	OrigDataStartFrame	OrigNumFrames
100.0	100.0	6	51	mm	100.0	208	237
Frame#	Time	r_knee			r_shank_antsup			r_ankle			r_calc			r_5meta			r_toe			L_knee			L_shank_antsup			L_ankle			L_calc			L_5meta			L_toe			r_sh2			r_sh3			r_sh4			L_sh2			L_sh3			r_thigh1			r_thigh2			r_thigh3			r_thigh4			r_thigh5			L_thigh1			L_thigh2			L_thigh3			L_thigh4			r.ASIS			r.PSIS			L.ASIS			L.PSIS			C7			R_Shoulder			L_Shoulder			R_Sternum			L_Sternum			R_humerus			R_elbow_med			R_elbow_lat			R_forearm			R_wrist_radius			R_wrist_ulna			L_humerus			L_elbow_med			L_elbow_lat			L_forearm			L_wrist_radius			L_wrist_ulna			R_HJC			L_HJC			R_HJC_reg			L_HJC_reg			
		X1	Y1	Z1	X2	Y2	Z2	X3	Y3	Z3	X4	Y4	Z4	X5	Y5	Z5	X6	Y6	Z6	X7	Y7	Z7	X8	Y8	Z8	X9	Y9	Z9	X10	Y10	Z10	X11	Y11	Z11	X12	Y12	Z12	X13	Y13	Z13	X14	Y14	Z14	X15	Y15	Z15	X16	Y16	Z16	X17	Y17	Z17	X18	Y18	Z18	X19	Y19	Z19	X20	Y20	Z20	X21	Y21	Z21	X22	Y22	Z22	X23	Y23	Z23	X24	Y24	Z24	X25	Y25	Z25	X26	Y26	Z26	X27	Y27	Z27	X28	Y28	Z28	X29	Y29	Z29	X30	Y30	Z30	X31	Y31	Z31	X32	Y32	Z32	X33	Y33	Z33	X34	Y34	Z34	X35	Y35	Z35	X36	Y36	Z36	X37	Y37	Z37	X38	Y38	Z38	X39	Y39	Z39	X40	Y40	Z40	X41	Y41	Z41	X42	Y42	Z42	X43	Y43	Z43	X44	Y44	Z44	X45	Y45	Z45	X46	Y46	Z46	X47	Y47	Z47	X48	Y48	Z48	X49	Y49	Z49	X50	Y50	Z50	X51	Y51	Z51	

208	2.07000000	-175.51680	773.83943	-408.54663	-179.83066	705.30659	-383.00042	-182.17021	394.85560	-417.63229	-232.28186	396.14381	-482.81905	-118.85300	298.22397	-377.93330	-53.16563	306.44742	-406.82961	-102.61066	810.16831	-758.08521	-78.75322	743.38267	-767.71534	-157.41620	439.13078	-778.62568	-232.30968	425.44253	-728.83334	-89.71787	355.05943	-807.59143	-33.13085	357.69632	-756.14803	-181.20433	594.21070	-376.72343	-242.65680	703.16681	-423.53713	-248.41659	587.45264	-424.26150	-164.38813	763.71679	-785.54190	-176.09175	643.00069	-799.63060	-121.76977	1083.54885	-417.73797	-108.83665	972.42548	-401.41326	-160.76273	947.09865	-365.36729	-226.25254	1077.98614	-371.48842	-216.06879	960.91253	-373.12460	-86.27558	1101.40513	-729.65168	-57.92774	965.82417	-742.78235	-195.88436	1082.86922	-765.92754	-161.26975	945.23001	-770.04509	-122.34520	1223.44349	-429.46547	-292.51164	1276.34031	-507.63572	-103.97310	1250.39582	-681.46094	-288.00979	1286.57911	-611.27615	-92.37371	1709.79396	-483.27423	-80.39467	1611.89537	-351.19381	-51.81914	1671.33991	-641.97075	-8.43663	1588.86875	-476.80463	-3.03169	1597.98979	-519.60006	-137.54656	1372.52768	-307.97958	-197.44455	1290.48099	-374.29494	-179.87563	1295.09491	-306.60698	-133.69372	1177.37877	-313.58472	-117.24194	1063.66656	-335.40531	-156.60382	1054.20890	-317.20903	-27.89250	1562.13947	-716.20796	-101.35066	1351.84460	-758.54178	-59.87882	1374.18109	-805.38888	26.79810	1316.38003	-749.07884	86.31447	1227.44316	-683.85241	90.24194	1207.38301	-714.85733	-194.86211	1162.03935	-467.23073	-178.47624	1186.23876	-665.38104	-190.89456	1157.74951	-474.97906	-183.64804	1174.22097	-641.71492	
209	2.08000000	-174.55103	769.13264	-407.44923	-179.65574	700.52094	-382.04389	-181.93675	389.92448	-415.51188	-232.21076	388.87645	-480.76579	-117.07645	295.29215	-373.96009	-51.46132	304.24205	-402.95082	-99.77079	804.84070	-757.35753	-76.64308	737.64103	-766.60429	-159.26461	434.46959	-778.39120	-233.99246	421.28730	-728.36990	-92.29578	350.25118	-807.81279	-35.48372	352.43161	-756.67682	-181.00959	589.38820	-375.24985	-242.54172	698.37276	-422.32908	-248.38324	582.56859	-422.69659	-161.80768	759.13875	-785.66390	-175.08189	638.56737	-799.81253	-121.45395	1078.61620	-419.48422	-107.49323	967.95071	-403.38566	-157.82347	942.16426	-366.21932	-223.86104	1073.28959	-369.47676	-213.53778	956.08360	-371.72606	-83.37810	1096.12391	-729.99547	-55.18039	960.50075	-742.64103	-192.97340	1077.58273	-766.62484	-158.41326	939.87747	-770.30851	-122.60722	1217.87790	-429.09920	-291.71686	1272.45907	-508.99053	-101.95117	1244.60836	-680.22325	-286.16880	1282.67793	-612.90484	-90.03654	1704.17703	-481.52177	-79.49905	1606.38734	-349.74722	-48.70695	1666.13035	-640.16117	-6.63161	1582.92129	-474.42236	-1.33551	1591.97168	-518.15327	-136.65525	1367.14928	-306.88449	-196.97816	1285.30787	-372.96441	-179.38639	1289.83194	-305.48527	-131.41927	1173.02099	-311.99316	-112.24988	1059.89660	-334.03719	-151.90583	1049.48220	-316.21964	-25.93905	1557.89181	-716.10695	-100.38852	1348.28356	-758.90209	-58.47677	1370.22707	-805.72459	26.85909	1311.13567	-748.36130	84.41972	1221.62088	-682.23158	88.22080	1201.37571	-713.25475	-195.65234	1157.23391	-467.48001	-176.96391	1181.18646	-665.45269	-191.43406	1153.05730	-475.08975	-182.56747	1169.40241	-641.28885	
210	2.09000000	-173.43880	763.75769	-406.72906	-178.84452	694.78544	-381.29085	-181.76487	384.14504	-413.73746	-232.50709	380.75800	-478.61907	-115.47572	291.71872	-370.08094	-50.15618	300.81918	-399.68073	-97.42458	798.51399	-756.77666	-74.72809	731.10135	-765.65867	-160.85126	429.02754	-777.73849	-236.03470	416.64216	-728.52700	-94.34047	344.66843	-807.29295	-38.01163	345.86027	-755.57578	-180.18824	583.61282	-373.94527	-241.91995	692.60102	-420.98168	-248.00360	576.70202	-420.85718	-159.61543	753.53788	-785.67479	-173.95275	632.95626	-799.81776	-121.01898	1073.09611	-420.85444	-106.77794	962.59568	-404.70462	-156.24383	936.95120	-365.94619	-222.34218	1067.60253	-368.07707	-211.71672	950.21304	-370.87410	-81.04531	1090.08459	-731.00077	-52.87360	954.27224	-742.58692	-190.57325	1071.14943	-767.53099	-155.96202	933.45078	-770.61489	-123.28524	1211.41432	-428.56412	-290.99706	1267.38206	-510.27171	-99.94295	1237.39075	-677.50541	-284.37261	1277.27207	-614.53300	-87.81030	1697.55294	-479.80874	-78.57525	1600.22425	-348.04887	-45.61876	1659.75314	-638.26673	-4.87905	1576.08877	-471.99077	0.52668	1584.98366	-516.43326	-135.63528	1360.81111	-305.58048	-195.97113	1278.95046	-372.40969	-178.77044	1283.61104	-304.15498	-128.76094	1167.97138	-310.28481	-106.55926	1055.33994	-332.34947	-146.39982	1043.91406	-314.99151	-23.74791	1552.54424	-715.72405	-99.37162	1343.98310	-759.74562	-56.60860	1365.13738	-806.32125	27.62835	1304.84982	-748.03614	83.21998	1214.95512	-680.66048	86.84656	1194.37873	-711.43714	-196.75131	1151.37507	-467.10960	-175.22294	1174.67519	-664.87078	-192.04916	1147.86657	-474.56569	-181.58038	1163.50545	-639.40637	
211	2.10000000	-172.41386	757.29705	-406.43195	-177.31987	688.02826	-380.54223	-181.59283	377.40545	-412.16921	-233.04624	371.87345	-476.20719	-113.83871	287.32618	-366.54669	-49.00469	296.13469	-397.24966	-95.45412	791.28325	-756.54449	-73.09293	723.66740	-764.98698	-162.18650	422.81020	-776.75986	-238.56751	410.99891	-728.97228	-95.74620	338.45538	-805.91355	-40.43792	338.61811	-753.13943	-178.73881	576.83735	-372.81839	-240.87345	685.74533	-419.36033	-247.24110	569.92011	-418.82808	-157.66949	746.94382	-785.82658	-172.82724	626.37701	-799.73197	-121.00619	1066.78199	-421.70801	-106.45562	956.19531	-405.16589	-155.66806	930.72922	-365.48888	-221.93242	1060.72096	-367.23484	-210.94299	943.31103	-370.48055	-79.44045	1083.18591	-732.17863	-51.04914	947.20619	-742.54620	-188.77834	1063.67414	-768.49274	-153.95332	926.00417	-771.02496	-124.05829	1204.05142	-427.38030	-290.38768	1260.92651	-511.51043	-97.95001	1229.34669	-674.85599	-282.66006	1270.40168	-616.03687	-85.69553	1689.98094	-478.23080	-77.92389	1593.19973	-346.28837	-42.47887	1652.35536	-636.34165	-3.19080	1568.23772	-469.52873	2.31550	1576.97068	-514.40928	-134.52260	1353.63003	-304.02864	-194.78711	1271.38137	-371.97070	-178.07515	1276.52522	-302.61557	-125.74036	1162.07507	-308.66473	-100.30165	1050.03161	-330.37125	-140.01239	1037.60387	-313.68972	-21.25908	1545.99000	-715.04498	-97.77918	1338.47032	-760.60942	-54.26224	1358.87041	-806.89986	29.06341	1297.55443	-747.96796	82.71288	1207.44698	-679.07646	86.16347	1186.45137	-709.40311	-197.69970	1144.43621	-466.53108	-173.25915	1167.04438	-664.03812	-192.60442	1141.43196	-473.51882	-180.47777	1156.29392	-637.48637	
212	2.11000000	-171.54195	749.27865	-406.28592	-175.28537	680.21543	-379.70941	-181.23984	369.66877	-410.66833	-233.66355	362.33282	-473.48344	-111.94350	281.69597	-363.77450	-47.76278	290.10046	-395.86748	-93.68043	783.21502	-756.83868	-71.69158	715.16983	-764.58404	-163.44843	415.58954	-775.69315	-241.11872	404.00210	-729.54354	-96.64730	331.33201	-803.82731	-42.53752	331.06478	-749.92936	-176.94454	569.01605	-371.75080	-239.66670	677.96596	-417.31089	-246.20802	562.23821	-416.58866	-155.78675	739.34812	-786.08730	-172.15496	618.95723	-799.59777	-121.52694	1059.46302	-421.60414	-106.16635	948.88386	-404.83335	-155.63677	922.95224	-365.69984	-222.60407	1052.52655	-367.06269	-211.19018	935.44302	-370.50186	-78.39791	1075.27444	-733.07679	-49.63619	939.28603	-742.74811	-187.59707	1055.20826	-769.25741	-152.40892	917.61925	-771.40979	-124.76012	1195.85539	-425.68241	-289.82794	1252.94597	-512.83060	-96.09892	1220.65815	-672.99404	-281.04611	1262.21098	-617.61204	-83.65502	1681.46224	-476.86599	-77.78089	1585.05820	-344.76877	-39.16428	1644.03419	-634.50879	-1.50285	1559.39824	-467.09141	3.89336	1567.83875	-512.47293	-133.50030	1345.73577	-302.30768	-193.76112	1262.83426	-370.97330	-177.35318	1268.58132	-300.85418	-122.33360	1155.31801	-306.90118	-93.55543	1044.25272	-328.16762	-132.90200	1030.68984	-312.19196	-18.31104	1538.15104	-714.14547	-95.24826	1331.44925	-761.20633	-51.35285	1351.40727	-807.20560	31.14957	1289.27256	-747.88034	82.88567	1198.96743	-677.49625	86.26881	1177.68996	-707.49937	-198.30167	1136.42730	-466.08852	-171.14593	1158.42833	-663.30908	-192.90139	1133.29008	-472.34775	-179.16084	1147.78303	-636.26578	
213	2.12000000	-170.78105	740.03541	-405.97435	-173.17394	671.39815	-378.81513	-180.56029	360.93354	-409.01113	-234.25167	352.19480	-470.51228	-109.63713	274.45204	-362.02611	-46.29090	282.64753	-395.64314	-92.04708	774.22673	-757.35349	-70.41576	705.74236	-764.64742	-164.72767	407.15721	-774.72662	-243.24955	395.61349	-730.05256	-97.23176	322.98105	-801.35309	-44.15255	323.16631	-746.44815	-175.15437	560.18733	-370.66247	-238.49136	669.37723	-415.03518	-245.06239	553.49771	-414.24099	-154.09824	730.73692	-786.26486	-171.97740	610.61805	-799.49134	-122.26923	1051.04080	-420.16773	-106.56353	940.45752	-403.59907	-156.49518	913.92844	-365.91904	-224.13322	1043.17268	-367.69991	-212.31827	926.55304	-370.91125	-77.70582	1066.33392	-733.76523	-48.61556	930.45393	-743.24862	-186.97521	1045.73337	-769.63246	-151.34449	908.41221	-771.71966	-125.56036	1186.68699	-424.08912	-289.29141	1243.57538	-514.21790	-94.57102	1210.97808	-671.36603	-279.62687	1252.85006	-619.35300	-81.60764	1671.95341	-475.68109	-77.91583	1575.97977	-343.43057	-35.61323	1634.64746	-632.72379	0.27936	1549.78119	-465.28197	5.46426	1557.65280	-510.58638	-132.78464	1337.14913	-300.41490	-192.90701	1253.51280	-369.72029	-176.58895	1259.75591	-298.85213	-118.61740	1147.92654	-304.91847	-86.39997	1037.92778	-326.03110	-125.30257	1023.24417	-310.30153	-14.68072	1529.05039	-713.07099	-91.88477	1323.14993	-761.72889	-47.70566	1342.81439	-807.30182	33.94353	1280.01908	-747.36583	83.68021	1189.34934	-675.72949	87.21599	1168.03519	-705.61410	-198.87153	1127.29562	-465.80381	-169.15573	1148.71307	-662.71683	-193.04659	1123.73143	-471.32368	-177.97906	1138.19388	-635.25851	
